<svg width="97" height="49" viewBox="0 0 97 49" fill="none" xmlns="http://www.w3.org/2000/svg">
<path d="M92.8319 14.5L68.4966 17.3421L68.9933 23.5C73.7941 23.3421 85.283 22.6474 92.8319 21.1316C100.381 19.6158 95.9772 16.0789 92.8319 14.5Z" fill="black"/>
<path d="M88.3621 23.9737L68.9933 26.3421L68 32.5C71.642 32.3421 80.7139 31.7421 87.8655 30.6053C95.0171 29.4684 91.1764 25.7105 88.3621 23.9737Z" fill="black"/>
<path d="M44.3531 21.5L31.9162 23L33.9061 32H44.3531L65.7446 48.5C67.4028 48.1667 71.0178 47.3 72.2118 46.5C73.7042 45.5 72.7093 28.5 72.2118 22C71.8138 16.8 69.0611 5.5 67.7345 0.5L59.2774 2.5L44.3531 21.5Z" fill="url(#paint0_linear_195_4194)"/>
<path d="M31.9162 32C27.4389 31.8333 17.4894 31 13.5096 29C8.53481 26.5 0.575193 19.5 0.0777165 18C-0.320264 16.8 0.906844 17.1667 1.57015 17.5L2.06764 16L4.05754 16.5L5.05249 14.5H6.04745C8.03735 16.5 12.4151 20.6 14.0071 21C15.997 21.5 19.9768 25 25.9465 24.5C29.5375 24.1992 30.7283 23.8796 30.9572 23.6687L30.9213 23.5C31.0035 23.5413 31.0327 23.5991 30.9572 23.6687L32.4137 30.5L31.9162 32Z" fill="url(#paint1_linear_195_4194)"/>
<defs>
<linearGradient id="paint0_linear_195_4194" x1="29.4288" y1="27" x2="3.00127" y2="12.6126" gradientUnits="userSpaceOnUse">
<stop stop-color="#D9D9D9"/>
<stop offset="1" stop-color="#D9D9D9" stop-opacity="0"/>
</linearGradient>
<linearGradient id="paint1_linear_195_4194" x1="29.4288" y1="27" x2="3.00127" y2="12.6126" gradientUnits="userSpaceOnUse">
<stop stop-color="#D9D9D9"/>
<stop offset="1" stop-color="#D9D9D9" stop-opacity="0"/>
</linearGradient>
</defs>
</svg>
